HIERARCHY
ROOT Hips
{
	OFFSET -0.001795 -0.223333 0.028219
	CHANNELS 6 Xposition Yposition Zposition Zrotation Yrotation Xrotation 
	JOINT LeftUpLeg
	{
		OFFSET 0.069520 -0.091406 -0.006815
		CHANNELS 3 Zrotation Yrotation Xrotation
		JOINT LeftLeg
		{
			OFFSET 0.034277 -0.375199 -0.004496
			CHANNELS 3 Zrotation Yrotation Xrotation
			JOINT LeftFoot
			{
				OFFSET -0.013596 -0.397961 -0.043693
				CHANNELS 3 Zrotation Yrotation Xrotation
				JOINT LeftToe
				{
					OFFSET 0.026358 -0.055791 0.119288
					CHANNELS 3 Zrotation Yrotation Xrotation
					End Site
					{
						OFFSET 0.000000 0.000000 0.000000
					}
				}
			}
		}
	}
	JOINT RightUpLeg
	{
		OFFSET -0.067670 -0.090522 -0.004320
		CHANNELS 3 Zrotation Yrotation Xrotation
		JOINT RightLeg
		{
			OFFSET -0.038290 -0.382569 -0.008850
			CHANNELS 3 Zrotation Yrotation Xrotation
			JOINT RightFoot
			{
				OFFSET 0.015774 -0.398415 -0.042312
				CHANNELS 3 Zrotation Yrotation Xrotation
				JOINT RightToe
				{
					OFFSET -0.025372 -0.048144 0.123348
					CHANNELS 3 Zrotation Yrotation Xrotation
					End Site
					{
						OFFSET 0.000000 0.000000 0.000000
					}
				}
			}
		}
	}
	JOINT Spine
	{
		OFFSET -0.002533 0.108963 -0.026696
		CHANNELS 3 Zrotation Yrotation Xrotation
		JOINT Spine1
		{
			OFFSET 0.005487 0.135180 0.001092
			CHANNELS 3 Zrotation Yrotation Xrotation
			JOINT Spine2
			{
				OFFSET 0.001457 0.052922 0.025425
				CHANNELS 3 Zrotation Yrotation Xrotation
				JOINT Neck
				{
					OFFSET -0.002778 0.213870 -0.042857
					CHANNELS 3 Zrotation Yrotation Xrotation
					JOINT Head
					{
						OFFSET 0.005152 0.064970 0.051349
						CHANNELS 3 Zrotation Yrotation Xrotation
						End Site
						{
							OFFSET 0.000000 0.000000 0.000000
						}
					}
				}
				JOINT LeftShoulder
				{
					OFFSET 0.078845 0.121749 -0.034090
					CHANNELS 3 Zrotation Yrotation Xrotation
					JOINT LeftArm
					{
						OFFSET 0.090977 0.030469 -0.008868
						CHANNELS 3 Zrotation Yrotation Xrotation
						JOINT LeftForeArm
						{
							OFFSET 0.259612 -0.012772 -0.027456
							CHANNELS 3 Zrotation Yrotation Xrotation
							JOINT LeftHand
							{
								OFFSET 0.249234 0.008986 -0.001171
								CHANNELS 3 Zrotation Yrotation Xrotation
								End Site
								{
									OFFSET 0.000000 0.000000 0.000000
								}
							}
						}
					}
				}
				JOINT RightShoulder
				{
					OFFSET -0.081759 0.118833 -0.038615
					CHANNELS 3 Zrotation Yrotation Xrotation
					JOINT RightArm
					{
						OFFSET -0.096012 0.032551 -0.009143
						CHANNELS 3 Zrotation Yrotation Xrotation
						JOINT RightForeArm
						{
							OFFSET -0.253742 -0.013329 -0.021401
							CHANNELS 3 Zrotation Yrotation Xrotation
							JOINT RightHand
							{
								OFFSET -0.255298 0.007772 -0.005559
								CHANNELS 3 Zrotation Yrotation Xrotation
								End Site
								{
									OFFSET 0.000000 0.000000 0.000000
								}
							}
						}
					}
				}
			}
		}
	}
}
MOTION
Frames: 10
Frame Time: 0.050000
0.000000 0.956381 0.000000 -0.116075 -8.652925 -0.440256 4.134976 0.508790 7.054455 -1.064997 0.320447 -6.830203 4.036436 10.847663 15.833931 0.000000 0.000000 0.000000 -6.440833 0.119905 5.272219 3.152033 -0.318562 -5.941166 -0.782976 -8.000523 13.374163 0.000000 0.000000 0.000000 6.837123 -0.303864 2.824488 -4.822199 1.638092 -25.033879 -1.702885 9.916915 30.079510 9.976057 -5.674326 -15.149625 0.000000 0.000000 0.000000 12.482461 5.512471 -0.550300 -8.791767 -14.081974 -1.266164 14.862043 1.808978 0.134487 0.000000 0.000000 0.000000 -3.462475 -15.409197 -5.238323 12.001849 15.150324 -1.210037 -13.764901 5.595633 -0.051565 0.000000 0.000000 0.000000 
0.000122 0.956289 0.000167 0.207344 -8.940922 -0.837267 4.258887 0.617197 8.446940 -2.320680 0.427185 -7.604634 4.459163 11.557629 16.449950 0.000000 0.000000 0.000000 -6.380902 0.113230 5.447476 2.435514 -0.293668 -6.034782 -0.692449 -7.845107 13.269744 0.000000 0.000000 0.000000 7.145359 -0.292042 2.734368 -5.225078 1.737552 -24.272291 -1.454083 10.481140 30.556788 9.923654 -5.892899 -13.637785 0.000000 0.000000 0.000000 12.363857 4.779037 -0.344905 -7.820058 -14.214951 -1.236573 14.058673 3.224932 0.239417 0.000000 0.000000 0.000000 -3.075239 -16.455137 -5.693567 11.649415 15.659997 -1.220245 -14.982028 5.322333 -0.027294 0.000000 0.000000 0.000000 
0.000187 0.957368 0.000155 0.020818 -7.304788 -0.553015 4.585542 0.481991 7.369489 -2.495697 0.401397 -6.343035 4.427317 11.546898 15.214221 0.000000 0.000000 0.000000 -6.214256 0.056077 5.543538 3.269036 -0.337516 -6.056098 -1.161441 -8.591783 13.646992 0.000000 0.000000 0.000000 6.608157 -0.194346 1.741553 -5.348293 1.798766 -23.739760 -0.879994 8.088543 30.822059 8.522627 -5.045788 -13.587072 0.000000 0.000000 0.000000 11.007864 4.662373 -0.613134 -7.847822 -13.251685 -1.249312 15.879194 2.565273 0.247249 0.000000 0.000000 0.000000 -3.254217 -15.641750 -5.322753 10.513500 14.727481 -1.245561 -13.707472 5.029096 -0.040900 0.000000 0.000000 0.000000 
0.000303 0.956917 0.000152 0.077698 -7.932455 -0.917584 4.752708 0.567462 8.493167 -3.286597 0.477099 -7.364558 4.643101 11.857259 15.430117 0.000000 0.000000 0.000000 -6.880650 0.116361 6.133153 3.952781 -0.351693 -6.424916 -1.319141 -9.187706 14.475846 0.000000 0.000000 0.000000 6.869266 -0.282765 2.692497 -5.810580 1.899938 -24.268453 -0.674435 8.663938 31.249012 9.056469 -5.594443 -12.869252 0.000000 0.000000 0.000000 11.541271 5.503195 -0.777951 -7.298876 -14.307504 -1.248873 15.410818 3.609088 0.338786 0.000000 0.000000 0.000000 -2.401384 -16.746752 -5.858024 9.788265 14.721084 -1.253928 -12.876551 4.669275 0.000719 0.000000 0.000000 0.000000 
0.000401 0.956797 0.000113 -0.174904 -7.678581 -0.520213 4.613001 0.539365 8.124040 -2.984693 0.455323 -7.398070 4.849936 12.205822 15.566249 0.000000 0.000000 0.000000 -6.448587 0.072946 6.062240 4.071427 -0.354757 -6.998382 -1.421338 -9.441686 14.862609 0.000000 0.000000 0.000000 6.721034 -0.209280 1.877960 -5.508721 1.834050 -23.709507 -0.355747 7.986132 31.224193 8.628567 -5.194928 -13.501167 0.000000 0.000000 0.000000 11.694987 5.284401 -0.761905 -8.366038 -13.354690 -1.277409 15.097550 4.065329 0.396205 0.000000 0.000000 0.000000 -2.950688 -15.876671 -5.433299 10.264120 14.446064 -1.253833 -12.153078 3.525349 0.080055 0.000000 0.000000 0.000000 
0.000433 0.956547 0.000068 -0.241185 -7.668672 -0.845020 4.979882 0.555140 8.640860 -3.290716 0.479514 -7.724574 4.675254 11.973771 15.773412 0.000000 0.000000 0.000000 -6.472861 0.046660 6.949168 4.082813 -0.352636 -7.520413 -1.330414 -9.360238 15.142720 0.000000 0.000000 0.000000 6.571851 -0.227347 2.159108 -5.383012 1.809206 -23.309225 -0.194914 7.919503 31.450878 8.695084 -5.279932 -13.413422 0.000000 0.000000 0.000000 11.487037 5.778132 -0.914574 -8.546200 -13.720881 -1.288899 14.903270 4.225017 0.409518 0.000000 0.000000 0.000000 -2.840134 -15.720921 -5.392830 10.763514 14.343714 -1.270284 -12.095110 3.441163 0.086763 0.000000 0.000000 0.000000 
0.000501 0.956410 -0.000118 -0.391431 -7.280001 -0.960144 5.273921 0.518867 8.504091 -3.539125 0.486380 -7.277884 4.641827 11.921468 15.328975 0.000000 0.000000 0.000000 -6.294378 0.014165 6.955562 4.246434 -0.364136 -7.240331 -1.393495 -9.380804 15.010074 0.000000 0.000000 0.000000 6.619951 -0.230371 2.200172 -5.233512 1.780166 -23.172394 -0.162906 7.691897 31.540430 8.844526 -5.454374 -13.150582 0.000000 0.000000 0.000000 11.354201 5.372765 -0.815231 -9.361401 -13.483967 -1.322846 14.699482 4.169246 0.399319 0.000000 0.000000 0.000000 -3.013142 -15.180110 -5.181401 11.577960 13.794989 -1.308020 -12.126069 2.787079 0.138484 0.000000 0.000000 0.000000 
0.000593 0.956045 -0.000261 -0.477579 -7.303182 -1.033608 5.596109 0.513646 8.733198 -3.882572 0.507901 -7.135249 4.628339 11.894632 15.226610 0.000000 0.000000 0.000000 -6.292306 0.019590 6.720541 4.329928 -0.369860 -6.711848 -1.389186 -9.309336 14.771890 0.000000 0.000000 0.000000 6.635948 -0.232943 2.242545 -5.058269 1.738166 -22.932958 -0.236188 7.664569 31.480143 8.954811 -5.501054 -13.332654 0.000000 0.000000 0.000000 11.205146 5.128430 -0.761121 -10.189539 -13.162735 -1.357990 14.658231 3.939001 0.380206 0.000000 0.000000 0.000000 -2.856489 -14.885390 -5.091673 12.059148 13.560811 -1.320956 -12.118266 2.418990 0.166235 0.000000 0.000000 0.000000 
0.000721 0.955891 -0.000432 -0.539386 -7.091497 -0.881809 5.784708 0.479583 8.501029 -4.090623 0.518698 -7.045898 4.443141 11.616173 15.116673 0.000000 0.000000 0.000000 -6.240169 0.021254 6.353722 4.419427 -0.378698 -6.220740 -1.346326 -9.157513 14.589943 0.000000 0.000000 0.000000 6.748762 -0.232092 2.175729 -5.070737 1.742889 -23.093976 -0.388115 7.493375 31.586860 9.120917 -5.529198 -13.911486 0.000000 0.000000 0.000000 10.388422 5.034757 -0.813694 -10.782593 -13.278570 -1.389770 14.942192 3.405678 0.341773 0.000000 0.000000 0.000000 -2.456448 -14.915559 -5.157906 12.619352 13.439708 -1.344317 -12.296697 2.235255 0.183366 0.000000 0.000000 0.000000 
0.000835 0.955691 -0.000621 -0.685641 -7.262054 -0.675435 6.094943 0.448337 8.271825 -4.212381 0.528849 -7.134720 4.475342 11.658148 15.227563 0.000000 0.000000 0.000000 -6.222174 0.035711 6.035906 4.524753 -0.380722 -6.035591 -1.370659 -9.218537 14.586992 0.000000 0.000000 0.000000 6.772383 -0.228145 2.090728 -4.883155 1.688177 -23.354203 -0.297229 7.763677 31.807410 9.643869 -5.911821 -13.932782 0.000000 0.000000 0.000000 9.811215 5.060644 -0.860531 -11.820498 -13.497382 -1.440225 14.749704 2.624796 0.263915 0.000000 0.000000 0.000000 -1.683017 -15.061038 -5.328567 13.286647 13.530497 -1.374237 -12.282217 2.535321 0.167362 0.000000 0.000000 0.000000 
